<svg width="30" height="30" viewBox="0 0 30 30" fill="none" xmlns="http://www.w3.org/2000/svg">
<rect width="30" height="30" rx="6" fill="#33A939"/>
<path d="M9.46967 18.6621C9.17678 18.9549 9.17678 19.4298 9.46967 19.7227C9.76256 20.0156 10.2374 20.0156 10.5303 19.7227L9.46967 18.6621ZM19.9424 10C19.9424 9.58578 19.6066 9.24999 19.1924 9.25L12.4424 9.24999C12.0282 9.24999 11.6924 9.58578 11.6924 9.99999C11.6924 10.4142 12.0282 10.75 12.4424 10.75H18.4424V16.75C18.4424 17.1642 18.7782 17.5 19.1924 17.5C19.6066 17.5 19.9424 17.1642 19.9424 16.75L19.9424 10ZM10.5303 19.7227L19.7227 10.5303L18.6621 9.46966L9.46967 18.6621L10.5303 19.7227Z" fill="white"/>
</svg>
